<svg width="42" height="42" viewBox="0 0 42 42" fill="none" xmlns="http://www.w3.org/2000/svg">
<g clip-path="url(#clip0_1_23)">
<path d="M5.72461 34V7.63281H13.8457C16.002 7.63281 17.8477 7.9668 19.3828 8.63477C20.9297 9.30273 22.1133 10.2578 22.9336 11.5C23.7539 12.7422 24.1641 14.2305 24.1641 15.9648C24.1641 17.6875 23.7539 19.1758 22.9336 20.4297C22.1133 21.6836 20.9297 22.6504 19.3828 23.3301C17.8477 23.998 16.002 24.332 13.8457 24.332H8.81836V34H5.72461ZM8.81836 21.5898H13.582C15.9492 21.5898 17.7773 21.0918 19.0664 20.0957C20.3555 19.0996 21 17.7227 21 15.9648C21 14.207 20.3555 12.8359 19.0664 11.8516C17.7773 10.8672 15.9492 10.375 13.582 10.375H8.81836V21.5898Z" fill="#1F2A2E"/>
<path d="M21 34.0969V28H27.097V34.0969H21Z" fill="#C1FF72"/>
</g>
<defs>
<clipPath id="clip0_1_23">
<rect width="42" height="42" fill="white"/>
</clipPath>
</defs>
</svg>
