<svg width="277" height="42" viewBox="0 0 277 42" fill="none" xmlns="http://www.w3.org/2000/svg">
<g clip-path="url(#clip0_1_23)">
<path d="M14.543 31H11.4492V7.375H2.97656V4.63281H23.0156V7.375H14.543V31ZM26.3555 31V4.63281H29.2383V16.0586C30.5625 14.0664 32.6133 13.0703 35.3906 13.0703C37.7227 13.0703 39.5391 13.7676 40.8398 15.1621C42.1523 16.5449 42.8086 18.4785 42.8086 20.9629V31H39.9258V21.6309C39.9258 19.7441 39.457 18.2793 38.5195 17.2363C37.5938 16.1816 36.2988 15.6543 34.6348 15.6543C32.959 15.6543 31.6406 16.1875 30.6797 17.2539C29.7188 18.3203 29.2383 19.7793 29.2383 21.6309V31H26.3555ZM63.3223 28.8379C61.1426 30.5137 58.7402 31.3516 56.1152 31.3516C54.2871 31.3516 52.6465 30.9414 51.1934 30.1211C49.7402 29.3008 48.5918 28.1875 47.748 26.7812C46.916 25.3633 46.5 23.7637 46.5 21.9824C46.5 20.2715 46.8867 18.748 47.6602 17.4121C48.4336 16.0645 49.4941 15.0039 50.8418 14.2305C52.1895 13.457 53.7188 13.0703 55.4297 13.0703C57.1875 13.0703 58.7344 13.4922 60.0703 14.3359C61.418 15.1797 62.4668 16.3516 63.2168 17.8516C63.9668 19.3516 64.3418 21.0859 64.3418 23.0547V23.6172H49.6289C49.8398 24.6484 50.2617 25.5449 50.8945 26.3066C51.5273 27.0684 52.3184 27.6602 53.2676 28.082C54.2285 28.5039 55.2949 28.7148 56.4668 28.7148C58.4824 28.7148 60.3223 28.0527 61.9863 26.7285L63.3223 28.8379ZM49.5234 21.1562H61.6172C61.4883 20.0664 61.1484 19.1172 60.5977 18.3086C60.0586 17.4883 59.3555 16.8496 58.4883 16.3926C57.6328 15.9355 56.666 15.707 55.5879 15.707C54.498 15.707 53.5137 15.9355 52.6348 16.3926C51.7676 16.8496 51.0586 17.4883 50.5078 18.3086C49.9688 19.1172 49.6406 20.0664 49.5234 21.1562ZM77.1914 31V4.63281H85.3125C87.4688 4.63281 89.3145 4.9668 90.8496 5.63477C92.3965 6.30273 93.5801 7.25781 94.4004 8.5C95.2207 9.74219 95.6309 11.2305 95.6309 12.9648C95.6309 14.6875 95.2207 16.1758 94.4004 17.4297C93.5801 18.6836 92.3965 19.6504 90.8496 20.3301C89.3145 20.998 87.4688 21.332 85.3125 21.332H80.2852V31H77.1914ZM80.2852 18.5898H85.0488C87.416 18.5898 89.2441 18.0918 90.5332 17.0957C91.8223 16.0996 92.4668 14.7227 92.4668 12.9648C92.4668 11.207 91.8223 9.83594 90.5332 8.85156C89.2441 7.86719 87.416 7.375 85.0488 7.375H80.2852V18.5898ZM102.75 31H99.8672V13.4219H102.398L102.521 16.9023C103.131 15.6953 103.986 14.7578 105.088 14.0898C106.201 13.4102 107.479 13.0703 108.92 13.0703C109.236 13.0703 109.559 13.0879 109.887 13.123C110.215 13.1582 110.543 13.2109 110.871 13.2812L110.52 15.8828C109.875 15.7305 109.236 15.6543 108.604 15.6543C107.455 15.6543 106.436 15.9355 105.545 16.498C104.666 17.0605 103.98 17.834 103.488 18.8184C102.996 19.8027 102.75 20.9336 102.75 22.2109V31ZM121.664 31.3516C119.918 31.3516 118.348 30.9531 116.953 30.1562C115.559 29.3594 114.457 28.2754 113.648 26.9043C112.852 25.5215 112.453 23.957 112.453 22.2109C112.453 20.4766 112.852 18.9238 113.648 17.5527C114.457 16.1699 115.559 15.0801 116.953 14.2832C118.348 13.4746 119.918 13.0703 121.664 13.0703C123.41 13.0703 124.975 13.4746 126.357 14.2832C127.74 15.0801 128.83 16.1699 129.627 17.5527C130.424 18.9238 130.822 20.4766 130.822 22.2109C130.822 23.957 130.424 25.5215 129.627 26.9043C128.83 28.2754 127.74 29.3594 126.357 30.1562C124.975 30.9531 123.41 31.3516 121.664 31.3516ZM121.646 28.75C122.83 28.75 123.891 28.4629 124.828 27.8887C125.766 27.3145 126.504 26.5352 127.043 25.5508C127.594 24.5664 127.869 23.4531 127.869 22.2109C127.869 20.9688 127.594 19.8555 127.043 18.8711C126.504 17.8867 125.766 17.1074 124.828 16.5332C123.891 15.959 122.83 15.6719 121.646 15.6719C120.463 15.6719 119.396 15.959 118.447 16.5332C117.51 17.1074 116.766 17.8867 116.215 18.8711C115.676 19.8555 115.406 20.9688 115.406 22.2109C115.406 23.4531 115.676 24.5664 116.215 25.5508C116.766 26.5352 117.51 27.3145 118.447 27.8887C119.396 28.4629 120.463 28.75 121.646 28.75ZM152.039 31H149.473L149.314 28.4336C148.506 29.3359 147.521 30.0508 146.361 30.5781C145.201 31.0938 143.93 31.3516 142.547 31.3516C140.824 31.3516 139.277 30.9531 137.906 30.1562C136.535 29.3594 135.451 28.2695 134.654 26.8867C133.869 25.5039 133.477 23.9453 133.477 22.2109C133.477 20.4648 133.869 18.9062 134.654 17.5352C135.451 16.1523 136.535 15.0625 137.906 14.2656C139.277 13.4688 140.824 13.0703 142.547 13.0703C143.883 13.0703 145.113 13.3105 146.238 13.791C147.375 14.2715 148.348 14.9395 149.156 15.7949V4.63281H152.039V31ZM142.811 28.75C143.982 28.75 145.049 28.4805 146.01 27.9414C146.971 27.3906 147.732 26.6465 148.295 25.709C148.869 24.7598 149.156 23.6875 149.156 22.4922V21.8945C149.156 20.6992 148.869 19.6328 148.295 18.6953C147.732 17.7461 146.971 17.002 146.01 16.4629C145.049 15.9238 143.982 15.6543 142.811 15.6543C141.592 15.6543 140.502 15.9414 139.541 16.5156C138.58 17.0898 137.818 17.8691 137.256 18.8535C136.705 19.8379 136.43 20.9512 136.43 22.1934C136.43 23.4355 136.705 24.5547 137.256 25.5508C137.818 26.5352 138.58 27.3145 139.541 27.8887C140.502 28.4629 141.592 28.75 142.811 28.75ZM182.449 31H166.277V4.63281H169.371V28.2578H182.449V31ZM200.678 31H198.199L198.006 28.6797C197.361 29.5117 196.541 30.168 195.545 30.6484C194.549 31.1172 193.436 31.3516 192.205 31.3516C190.939 31.3516 189.809 31.1055 188.812 30.6133C187.816 30.1094 187.031 29.4238 186.457 28.5566C185.895 27.6895 185.613 26.7051 185.613 25.6035C185.613 24.4434 185.918 23.4238 186.527 22.5449C187.148 21.6543 187.986 20.957 189.041 20.4531C190.107 19.9492 191.314 19.6973 192.662 19.6973C193.541 19.6973 194.438 19.8086 195.352 20.0312C196.266 20.2422 197.08 20.5352 197.795 20.9102V20.1719C197.795 19.2344 197.561 18.4375 197.092 17.7812C196.623 17.1133 195.996 16.6035 195.211 16.252C194.426 15.8887 193.559 15.707 192.609 15.707C191.789 15.707 190.951 15.8594 190.096 16.1641C189.24 16.457 188.42 16.9141 187.635 17.5352L186.686 15.0566C187.705 14.4004 188.777 13.9082 189.902 13.5801C191.027 13.2402 192.141 13.0703 193.242 13.0703C194.766 13.0703 196.078 13.3809 197.18 14.002C198.293 14.6113 199.154 15.4844 199.764 16.6211C200.373 17.7461 200.678 19.082 200.678 20.6289V31ZM192.715 28.7148C193.617 28.7148 194.443 28.5273 195.193 28.1523C195.943 27.7773 196.553 27.2383 197.021 26.5352C197.49 25.8203 197.748 24.9766 197.795 24.0039V23.7051C197.15 23.2012 196.424 22.8145 195.615 22.5449C194.818 22.2637 194.004 22.123 193.172 22.123C191.871 22.123 190.781 22.4395 189.902 23.0723C189.035 23.7051 188.602 24.5078 188.602 25.4805C188.602 26.0898 188.777 26.6406 189.129 27.1328C189.492 27.625 189.984 28.0117 190.605 28.293C191.227 28.5742 191.93 28.7148 192.715 28.7148ZM208.359 31H205.793V4.63281H208.676V15.7949C209.496 14.9395 210.469 14.2715 211.594 13.791C212.719 13.3105 213.943 13.0703 215.268 13.0703C217.002 13.0703 218.549 13.4688 219.908 14.2656C221.268 15.0625 222.34 16.1523 223.125 17.5352C223.922 18.9062 224.32 20.4648 224.32 22.2109C224.32 23.9453 223.922 25.5039 223.125 26.8867C222.34 28.2695 221.268 29.3594 219.908 30.1562C218.549 30.9531 217.002 31.3516 215.268 31.3516C213.885 31.3516 212.613 31.0938 211.453 30.5781C210.305 30.0508 209.32 29.3359 208.5 28.4336L208.359 31ZM215.021 28.75C216.229 28.75 217.307 28.4688 218.256 27.9062C219.217 27.332 219.973 26.5527 220.523 25.5684C221.086 24.584 221.367 23.4707 221.367 22.2285C221.367 20.9746 221.086 19.8555 220.523 18.8711C219.973 17.875 219.217 17.0898 218.256 16.5156C217.307 15.9414 216.229 15.6543 215.021 15.6543C213.873 15.6543 212.83 15.918 211.893 16.4453C210.967 16.9727 210.217 17.6934 209.643 18.6074C209.08 19.5215 208.758 20.5586 208.676 21.7188V22.6855C208.758 23.8457 209.08 24.8828 209.643 25.7969C210.205 26.7109 210.949 27.4316 211.875 27.959C212.812 28.4863 213.861 28.75 215.021 28.75Z" fill="#1F2A2E"/>
<path d="M231 31.0969V25H237.097V31.0969H231Z" fill="#C1FF72"/>
</g>
<defs>
<clipPath id="clip0_1_23">
<rect width="277" height="42" fill="white"/>
</clipPath>
</defs>
</svg>
